<svg width="49" height="54" viewBox="0 0 49 54" fill="none" xmlns="http://www.w3.org/2000/svg">
<path d="M11 26.875C11 24.7349 8.53757 23 5.5 23C2.46243 23 0 24.7349 0 26.875V50.125C0 52.2651 2.46243 54 5.5 54C8.53757 54 11 52.2651 11 50.125V26.875Z" fill="#D2E0FF"/>
<path d="M30 30.8571C30 28.7269 27.5376 27 24.5 27C21.4624 27 19 28.7269 19 30.8571V50.1429C19 52.2731 21.4624 54 24.5 54C27.5376 54 30 52.2731 30 50.1429V30.8571Z" fill="#D2E0FF"/>
<path d="M49 18.9C49 16.7461 46.5376 15 43.5 15C40.4624 15 38 16.7461 38 18.9V50.1C38 52.2539 40.4624 54 43.5 54C46.5376 54 49 52.2539 49 50.1V18.9Z" fill="#D2E0FF"/>
<g filter="url(#filter0_i_1293_6870)">
<path fill-rule="evenodd" clip-rule="evenodd" d="M43.5 11C46.5376 11 49 8.53757 49 5.5C49 2.46243 46.5376 0 43.5 0C40.4624 0 38 2.46243 38 5.5C38 6.09779 38.0954 6.6733 38.2717 7.21216L28.2913 13.5156C27.3047 12.5764 25.9697 12 24.5 12C22.1521 12 20.1478 13.4712 19.3587 15.542L10.9879 13.8679C10.9959 13.7463 11 13.6236 11 13.5C11 10.4624 8.53757 8 5.5 8C2.46243 8 0 10.4624 0 13.5C0 16.5376 2.46243 19 5.5 19C7.33446 19 8.95915 18.1019 9.95837 16.7214L19.1001 18.5497C19.59 21.0852 21.8214 23 24.5 23C27.5376 23 30 20.5376 30 17.5C30 17.0156 29.9374 16.5459 29.8198 16.0984L39.9496 9.7007C40.9077 10.5113 42.1468 11 43.5 11Z" fill="url(#paint0_linear_1293_6870)"/>
</g>
<defs>
<filter id="filter0_i_1293_6870" x="0" y="-0.2" width="49.1" height="23.2" filterUnits="userSpaceOnUse" color-interpolation-filters="sRGB">
<feFlood flood-opacity="0" result="BackgroundImageFix"/>
<feBlend mode="normal" in="SourceGraphic" in2="BackgroundImageFix" result="shape"/>
<feColorMatrix in="SourceAlpha" type="matrix" values="0 0 0 0 0 0 0 0 0 0 0 0 0 0 0 0 0 0 127 0" result="hardAlpha"/>
<feOffset dx="0.1" dy="-0.2"/>
<feGaussianBlur stdDeviation="0.4"/>
<feComposite in2="hardAlpha" operator="arithmetic" k2="-1" k3="1"/>
<feColorMatrix type="matrix" values="0 0 0 0 1 0 0 0 0 1 0 0 0 0 1 0 0 0 0.34 0"/>
<feBlend mode="normal" in2="shape" result="effect1_innerShadow_1293_6870"/>
</filter>
<linearGradient id="paint0_linear_1293_6870" x1="2.68572" y1="19.0222" x2="51.1797" y2="-18.3717" gradientUnits="userSpaceOnUse">
<stop stop-color="#457AFF"/>
<stop offset="0.68" stop-color="#1E5EFF"/>
<stop offset="1" stop-color="#123999"/>
</linearGradient>
</defs>
</svg>
